PathFileType	4	(X/Y/Z)	C:\Users\israe\Desktop\Doctoral Research\Projects\PhaseIA\OPENSIM_october\ExperimentalData\subject1\100\P1S100W01.trc
DataRate	CameraRate	NumFrames	NumMarkers	Units	OrigDataRate	OrigDataStartFrame	OrigNumFrames
100.000000	100.000000	3	136	mm	100.000000	0	246
Frame#	Time	PELVIS_cgm24O			PELVIS_cgm24A			PELVIS_cgm24L			PELVIS_cgm24P			LFEMUR_cgm24O			LFEMUR_cgm24A			LFEMUR_cgm24L			LFEMUR_cgm24P			LTIBIA_cgm24O			LTIBIA_cgm24A			LTIBIA_cgm24L			LTIBIA_cgm24P			LFOOT_cgm24O			LFOOT_cgm24A			LFOOT_cgm24L			LFOOT_cgm24P			LTOES_cgm24O			LTOES_cgm24A			LTOES_cgm24L			LTOES_cgm24P			RFEMUR_cgm24O			RFEMUR_cgm24A			RFEMUR_cgm24L			RFEMUR_cgm24P			RTIBIA_cgm24O			RTIBIA_cgm24A			RTIBIA_cgm24L			RTIBIA_cgm24P			RFOOT_cgm24O			RFOOT_cgm24A			RFOOT_cgm24L			RFOOT_cgm24P			RTOES_cgm24O			RTOES_cgm24A			RTOES_cgm24L			RTOES_cgm24P			THORAX_cgm24O			THORAX_cgm24A			THORAX_cgm24L			THORAX_cgm24P			LUPPERARM_cgm24O			LUPPERARM_cgm24A			LUPPERARM_cgm24L			LUPPERARM_cgm24P			LFOREARM_cgm24O			LFOREARM_cgm24A			LFOREARM_cgm24L			LFOREARM_cgm24P			LHAND_cgm24O			LHAND_cgm24A			LHAND_cgm24L			LHAND_cgm24P			RUPPERARM_cgm24O			RUPPERARM_cgm24A			RUPPERARM_cgm24L			RUPPERARM_cgm24P			RFOREARM_cgm24O			RFOREARM_cgm24A			RFOREARM_cgm24L			RFOREARM_cgm24P			RHAND_cgm24O			RHAND_cgm24A			RHAND_cgm24L			RHAND_cgm24P			HEAD_cgm24O			HEAD_cgm24A			HEAD_cgm24L			HEAD_cgm24P			LFHD			RFHD			LBHD			RBHD			C7			T10			CLAV			STRN			RBAK			LSHO			LELB			LFRM			LWRA			LWRB			LFIN			RSHO			RELB			RFRM			RWRA			RWRB			RFIN			LASI			RASI			LPSI			RPSI			LTHI			LTHAP			LTHAD			LKNE			LTIB			LTIAP			LTIAD			LANK			LHEE			LTOE			LFMH			LVMH			RTHI			RTHAP			RTHAD			RKNE			RTIB			RTIAP			RTIAD			RANK			RHEE			RTOE			RFMH			RVMH			RPel			LPel			LMEL			RMEL			LHJC_cgm24			RHJC_cgm24			LKJC_cgm24			RKJC_cgm24			LAJC_cgm24			RAJC_cgm24			LFJC_cgm24			RFJC_cgm24			LSJC_cgm24			RSJC_cgm24			LEJC_cgm24			REJC_cgm24			LHO_cgm24			RHO_cgm24			CentreOfMass_cgm24			
		X1	Y1	Z1	X2	Y2	Z2	X3	Y3	Z3	X4	Y4	Z4	X5	Y5	Z5	X6	Y6	Z6	X7	Y7	Z7	X8	Y8	Z8	X9	Y9	Z9	X10	Y10	Z10	X11	Y11	Z11	X12	Y12	Z12	X13	Y13	Z13	X14	Y14	Z14	X15	Y15	Z15	X16	Y16	Z16	X17	Y17	Z17	X18	Y18	Z18	X19	Y19	Z19	X20	Y20	Z20	X21	Y21	Z21	X22	Y22	Z22	X23	Y23	Z23	X24	Y24	Z24	X25	Y25	Z25	X26	Y26	Z26	X27	Y27	Z27	X28	Y28	Z28	X29	Y29	Z29	X30	Y30	Z30	X31	Y31	Z31	X32	Y32	Z32	X33	Y33	Z33	X34	Y34	Z34	X35	Y35	Z35	X36	Y36	Z36	X37	Y37	Z37	X38	Y38	Z38	X39	Y39	Z39	X40	Y40	Z40	X41	Y41	Z41	X42	Y42	Z42	X43	Y43	Z43	X44	Y44	Z44	X45	Y45	Z45	X46	Y46	Z46	X47	Y47	Z47	X48	Y48	Z48	X49	Y49	Z49	X50	Y50	Z50	X51	Y51	Z51	X52	Y52	Z52	X53	Y53	Z53	X54	Y54	Z54	X55	Y55	Z55	X56	Y56	Z56	X57	Y57	Z57	X58	Y58	Z58	X59	Y59	Z59	X60	Y60	Z60	X61	Y61	Z61	X62	Y62	Z62	X63	Y63	Z63	X64	Y64	Z64	X65	Y65	Z65	X66	Y66	Z66	X67	Y67	Z67	X68	Y68	Z68	X69	Y69	Z69	X70	Y70	Z70	X71	Y71	Z71	X72	Y72	Z72	X73	Y73	Z73	X74	Y74	Z74	X75	Y75	Z75	X76	Y76	Z76	X77	Y77	Z77	X78	Y78	Z78	X79	Y79	Z79	X80	Y80	Z80	X81	Y81	Z81	X82	Y82	Z82	X83	Y83	Z83	X84	Y84	Z84	X85	Y85	Z85	X86	Y86	Z86	X87	Y87	Z87	X88	Y88	Z88	X89	Y89	Z89	X90	Y90	Z90	X91	Y91	Z91	X92	Y92	Z92	X93	Y93	Z93	X94	Y94	Z94	X95	Y95	Z95	X96	Y96	Z96	X97	Y97	Z97	X98	Y98	Z98	X99	Y99	Z99	X100	Y100	Z100	X101	Y101	Z101	X102	Y102	Z102	X103	Y103	Z103	X104	Y104	Z104	X105	Y105	Z105	X106	Y106	Z106	X107	Y107	Z107	X108	Y108	Z108	X109	Y109	Z109	X110	Y110	Z110	X111	Y111	Z111	X112	Y112	Z112	X113	Y113	Z113	X114	Y114	Z114	X115	Y115	Z115	X116	Y116	Z116	X117	Y117	Z117	X118	Y118	Z118	X119	Y119	Z119	X120	Y120	Z120	X121	Y121	Z121	X122	Y122	Z122	X123	Y123	Z123	X124	Y124	Z124	X125	Y125	Z125	X126	Y126	Z126	X127	Y127	Z127	X128	Y128	Z128	X129	Y129	Z129	X130	Y130	Z130	X131	Y131	Z131	X132	Y132	Z132	X133	Y133	Z133	X134	Y134	Z134	X135	Y135	Z135	X136	Y136	Z136	

1	0	181.9250030517578	887.6649780273439	-1484.2900390625	176.3867797851563	872.2762451171876	-1313.407958984375	352.9601440429688	873.6348876953126	-1480.010375976563	195.5076293945313	1058.060180664063	-1468.505004882813	274.8380126953125	490.1740112304688	-1329.06005859375	270.0899353027344	642.8474731445314	-938.159912109375	694.4302978515625	498.7723999023438	-1327.32177734375	267.4617004394531	881.0083618164064	-1481.797485351563	272.3160095214844	130.8780059814454	-1167.130004882813	329.9834289550781	290.7398376464844	-811.54296875	662.177001953125	104.9066619873048	-1218.679809570313	274.8387451171875	490.1734008789063	-1329.068115234375	269.3779907226563	76.37899780273445	-1227.81005859375	273.1781005859375	276.9507446289063	-1328.984619140625	494.01416015625	72.09616851806648	-1227.863159179688	267.4020080566406	-24.77627563476554	-1428.417846679688	273.77099609375	141.0209960937501	-1101.31005859375	273.77099609375	141.0209960937501	-1101.31005859375	273.77099609375	141.0209960937501	-1101.31005859375	273.77099609375	141.0209960937501	-1101.31005859375	128.1130065917969	486.0419921875001	-1569.849975585938	182.987548828125	407.5505676269532	-1163.123413085938	541.1275634765625	527.8310546875001	-1617.50830078125	96.38883209228516	894.3205566406251	-1486.778930664063	171.2100067138672	106.4499969482423	-1689.5400390625	106.9696273803711	-18.99817657470695	-1314.826171875	564.008056640625	127.5821990966798	-1615.124633789063	128.1124420166016	486.0428466796876	-1569.847045898438	181.25	82.18750000000011	-1765.969970703125	168.9441223144531	307.304656982422	-1756.082153320313	402.8066101074219	92.46980285644541	-1724.329956054688	222.3375244140625	94.16582489013685	-1987.544555664063	158.9290008544922	79.39869689941416	-1624.859985351563	158.9290008544922	79.39869689941416	-1624.859985351563	158.9290008544922	79.39869689941416	-1624.859985351563	158.9290008544922	79.39869689941416	-1624.859985351563	194.1620025634766	1409.880004882813	-1423.180053710938	197.0394287109375	1432.514892578125	-951.7539672851561	-277.722900390625	1401.106811523438	-1419.878540039063	203.0832977294922	938.5267333984376	-1400.60302734375	418.2149963378906	1125.400024414063	-1563.949951171875	370.353515625	1191.915893554688	-1823.826293945313	151.37646484375	1086.514770507813	-1524.759033203125	390.6964111328125	1386.770263671875	-1491.983642578125	466.4540100097656	877.0269775390626	-1481.93994140625	442.3199157714844	789.3675537109376	-1733.235595703125	204.7585144042969	838.8915405273439	-1443.504272460938	417.9859008789063	1126.581787109375	-1564.337280273438	461.8869934082031	808.5830078125001	-1462.660034179688	579.0772094726563	825.6164550781251	-1374.4150390625	551.2608642578125	771.2218627929689	-1574.137939453125	471.3536376953125	950.4451904296876	-1502.61474609375	-70.73850250244141	1115.06005859375	-1500.890014648438	-105.4352951049805	1133.187133789063	-1765.408935546875	-328.3163452148438	1176.012573242188	-1462.9267578125	-7.86920166015625	1374.788696289063	-1491.337646484375	-81.78749847412109	940.0880126953126	-1294.930053710938	-154.1028137207031	741.8168334960939	-1467.246459960938	-344.238525390625	1002.193725585938	-1256.248657226563	-70.65765380859375	1116.341552734375	-1502.402221679688	-88.61319732666016	888.6569824218751	-1237.7099609375	-191.3505706787109	989.4723510742189	-1159.341918945313	38.25491333007813	957.8377685546876	-1160.387573242188	-74.129638671875	997.7924194335939	-1359.1181640625	179.5540008544922	1669.530029296875	-1476.829956054688	180.5353088378906	1681.366333007813	-1424.6396484375	232.8784027099609	1673.722290039063	-1478.783325195313	175.0342407226563	1721.560913085938	-1488.545166015625	250.9521942138672	1687.779052734375	-1432.143676757813	109.5586853027344	1678.79150390625	-1424.198364257813	269.2903137207031	1663.433959960938	-1529.288940429688	88.41571044921875	1648.135009765625	-1521.67138671875	187.9252777099609	1501.910888671875	-1544.70751953125	197.820068359375	1147.34619140625	-1597.821411132813	194.1888275146484	1410.097045898438	-1418.691040039063	194.1558532714844	1243.569458007813	-1340.621459960938	68.72599029541016	1347.541748046875	-1604.311279296875	390.0669860839844	1439.578735351563	-1492.963012695313	453.8589477539063	1126.44091796875	-1554.079345703125	468.9465026855469	996.3078613281251	-1483.971313476563	456.0395812988281	878.3007202148439	-1458.19287109375	483.9416809082031	878.8217773437501	-1501.054321289063	473.3927917480469	810.2552490234376	-1453.996704101563	-9.672163963317871	1423.2685546875	-1495.480834960938	-103.9562454223633	1122.57275390625	-1486.43310546875	-103.5407028198242	1035.568237304688	-1366.18115234375	-60.81489181518555	955.9556274414064	-1278.438842773438	-108.3949356079102	929.8064575195314	-1307.166015625	-97.70279693603516	897.5760498046876	-1230.7822265625	303.7724609375	958.9815673828126	-1419.488403320313	64.64765930175781	969.6823120117189	-1422.489624023438	231.6684722900391	974.8746337890626	-1602.409912109375	155.8775787353516	984.1235961914064	-1602.131713867188	357.3638916015625	655.5739746093751	-1400.1484375	295.4073791503906	766.0492553710939	-1336.865478515625	290.570556640625	670.0662231445314	-1304.719360351563	324.2080688476563	496.4970703125001	-1324.353271484375	332.3369140625	330.1451110839844	-1253.808715820313	278.8125610351563	399.5910034179688	-1224.88916015625	282.2210998535156	301.6417236328126	-1188.845947265625	309.9376831054688	122.9545974731446	-1172.413696289063	269.141357421875	69.46887207031257	-1229.5458984375	276.71337890625	153.5429382324219	-1077.938354492188	250.1900177001953	154.4153900146485	-1025.046020507813	336.9211730957031	120.9668350219727	-1044.790405273438	22.43851089477539	711.3596191406251	-1515.97216796875	76.18156433105469	761.8365478515626	-1412.985473632813	96.22751617431641	667.5322875976564	-1435.257446289063	77.41719818115234	492.6853027343751	-1567.420532226563	92.66283416748047	277.9634399414064	-1624.103271484375	128.9940948486328	349.6297302246095	-1553.671264648438	144.4350128173828	218.4035034179688	-1599.648681640625	133.7969207763672	103.2203674316407	-1695.143310546875	181.0355987548828	76.45619201660168	-1764.811157226563	156.1899108886719	71.3800048828126	-1595.229370117188	183.4591369628906	47.94360733032236	-1553.47509765625	94.61154937744141	44.12101745605479	-1594.886962890625	19.26185607910156	994.2523193359376	-1528.109375	360.6277160644531	980.1121215820314	-1508.309448242188	387.8844604492188	1114.875854492188	-1556.611450195313	-43.92821884155273	1095.93701171875	-1505.680053710938	267.4620056152344	881.0089721679689	-1481.800048828125	96.38860321044922	894.3209838867189	-1486.780029296875	274.8380126953125	490.1740112304688	-1329.06005859375	128.1130065917969	486.0419921875001	-1569.849975585938	272.3160095214844	130.8780059814454	-1167.130004882813	171.2100067138672	106.4499969482423	-1689.5400390625	273.77099609375	141.0209960937501	-1101.31005859375	158.9290008544922	79.39869689941416	-1624.859985351563	389.3739929199219	1399.329956054688	-1488.530029296875	-5.833980083465576	1383.199951171875	-1491.030029296875	418.2149963378906	1125.400024414063	-1563.949951171875	-70.73850250244141	1115.06005859375	-1500.890014648438	461.8869934082031	808.5830078125001	-1462.660034179688	-88.61319732666016	888.6569824218751	-1237.7099609375	195.5050048828125	995.9080200195314	-1479.239990234375	
2	0.01	182.1119995117188	884.2949829101564	-1469.609985351563	176.2436828613281	868.0853271484376	-1298.814819335938	353.083251953125	869.5648193359376	-1465.133666992188	196.3450012207031	1054.554931640625	-1452.962158203125	273.0849914550781	486.4389953613282	-1314.22998046875	272.38818359375	639.2261962890625	-923.3460083007813	692.7328491210938	491.7841186523438	-1315.571166992188	267.618408203125	877.2870483398439	-1467.012939453125	268.6210021972656	132.0039978027344	-1141.949951171875	339.3739013671875	300.7731323242188	-792.9019775390625	656.3033447265625	97.12188720703132	-1203.668212890625	273.085205078125	486.4382934570313	-1314.228393554688	263.7430114746094	74.69799804687507	-1199.869995117188	267.4946594238281	270.0610656738282	-1310.770629882813	488.1822509765625	66.68420410156257	-1206.39453125	254.1141204833984	-35.97633361816398	-1395.16015625	272.2369995117188	145.2870025634766	-1076.780029296875	272.2369995117188	145.2870025634766	-1076.780029296875	272.2369995117188	145.2870025634766	-1076.780029296875	272.2369995117188	145.2870025634766	-1076.780029296875	129.0469970703125	485.3439941406251	-1565.699951171875	180.6556854248047	396.1938171386719	-1160.746337890625	542.4266967773438	528.3323364257814	-1608.918701171875	96.60630798339844	891.3032226562501	-1472.194091796875	171.7350006103516	106.9810028076173	-1689.369995117188	106.5746765136719	-22.36151123046867	-1316.141967773438	564.4262084960938	126.6490020751954	-1613.995727539063	129.0472412109375	485.3434448242189	-1565.700805664063	181.3419952392578	82.70809936523449	-1765.839965820313	170.0426177978516	307.8891906738282	-1756.209838867188	402.7211303710938	91.98616790771494	-1723.03662109375	223.65673828125	94.29839324951185	-1987.2041015625	158.9850006103516	80.04550170898447	-1624.72998046875	158.9850006103516	80.04550170898447	-1624.72998046875	158.9850006103516	80.04550170898447	-1624.72998046875	158.9850006103516	80.04550170898447	-1624.72998046875	195.7380065917969	1406.359985351563	-1408.900024414063	200.1273193359375	1430.678344726563	-937.5693359374999	-276.15234375	1398.627319335938	-1404.106689453125	203.7071075439453	935.0722656250001	-1384.658081054688	418.3590087890625	1121.449951171875	-1551.170043945313	368.0661010742188	1188.433227539063	-1810.466552734375	151.8475341796875	1082.997192382813	-1509.4111328125	392.0331726074219	1382.764770507813	-1478.559326171875	466.7149963378906	872.3980102539064	-1471.890014648438	439.5894775390625	786.9895019531251	-1723.6552734375	205.3402099609375	834.6865844726564	-1430.93603515625	418.0982055664063	1122.796508789063	-1551.596801757813	462.2070007324219	803.8709716796876	-1453.400024414063	580.5007934570313	819.5606689453126	-1366.386962890625	550.126220703125	767.6088256835939	-1566.387329101563	471.5684509277344	946.1726074218751	-1491.785888671875	-69.64540100097656	1111.4599609375	-1484.910034179688	-103.3479156494141	1127.977905273438	-1749.662841796875	-327.2783813476563	1172.98974609375	-1448.275024414063	-6.461727142333984	1371.159790039063	-1476.75048828125	-81.51589965820313	938.0910034179689	-1277.199951171875	-153.4968566894531	738.3930053710939	-1448.002075195313	-344.0231018066406	1000.784790039063	-1239.871948242188	-69.57315826416016	1112.51611328125	-1486.166870117188	-88.80149841308594	888.0449829101564	-1218.949951171875	-191.9024505615234	990.7701416015626	-1143.597534179688	37.65357971191406	958.7854003906251	-1142.365600585938	-73.32363128662109	994.3633422851564	-1342.712280273438	181.0350036621094	1665.97998046875	-1463.099975585938	182.0229339599609	1677.857055664063	-1410.919067382813	234.3563232421875	1670.203125	-1465.07080078125	176.4804992675781	1717.9990234375	-1474.85400390625	252.4501800537109	1684.3037109375	-1418.471069335938	111.0310592651367	1675.230834960938	-1410.4765625	270.7881469726563	1659.910034179688	-1515.532592773438	89.870849609375	1644.492797851563	-1507.916381835938	189.3434600830078	1498.134399414063	-1530.744140625	198.2881317138672	1143.266235351563	-1582.408325195313	195.7799072265625	1406.590087890625	-1404.405639648438	195.6523895263672	1240.184448242188	-1325.925659179688	69.9656982421875	1343.295166015625	-1589.734619140625	391.4971618652344	1435.534790039063	-1479.656372070313	454.0438842773438	1122.339233398438	-1541.434692382813	469.5423889160156	991.6368408203126	-1472.74951171875	456.5781555175781	873.4812011718751	-1448.001708984375	483.9873962402344	874.3228759765626	-1491.192626953125	473.8214416503906	805.4106445312501	-1444.856811523438	-8.260287284851074	1419.550659179688	-1481.079223632813	-102.9198532104492	1119.107788085938	-1470.647094726563	-102.8419723510742	1032.759643554688	-1349.453857421875	-60.63626098632813	954.1856689453126	-1260.785278320313	-108.0614395141602	927.6106567382814	-1289.448120117188	-97.92313385009766	897.1328125000001	-1212.28125	304.2804870605469	955.1229858398439	-1404.027221679688	64.74260711669922	965.8275756835939	-1407.170532226563	232.3193054199219	971.1089477539064	-1586.688232421875	156.715576171875	980.7993774414064	-1586.5009765625	356.8856811523438	651.5458984375001	-1386.4072265625	295.7348937988281	762.7150268554689	-1322.587158203125	290.3561401367188	667.1841430664064	-1290.9365234375	322.6024169921875	493.1152343750001	-1309.46826171875	329.7290954589844	327.2860717773438	-1236.861450195313	277.5899047851563	397.7073669433594	-1206.98828125	280.5752868652344	300.7427368164063	-1170.033447265625	306.1848754882813	123.1243743896485	-1147.933715820313	263.5014343261719	67.80525207519538	-1200.698486328125	276.0887145996094	158.7833557128907	-1053.968994140625	251.1181030273438	163.2150115966797	-1000.450805664063	336.6989135742188	127.300880432129	-1020.274108886719	22.61957168579102	709.9317016601564	-1506.751586914063	75.70309448242188	758.2142944335939	-1402.345092773438	96.17239379882813	664.4313354492189	-1426.786499023438	78.27912902832031	492.6806945800782	-1562.83349609375	93.67295074462891	277.5437927246095	-1622.806762695313	130.0563201904297	348.5721130371095	-1551.595458984375	145.3554840087891	217.4768066406251	-1598.695190429688	134.1216430664063	103.6049118041993	-1695.276245117188	181.0632934570313	76.4805145263673	-1765.105346679688	156.0755615234375	71.89229583740244	-1594.748413085938	183.3263702392578	48.62537384033212	-1553.237915039063	94.55167388916016	44.3890380859376	-1594.374145507813	19.54449462890625	991.0499877929689	-1513.613525390625	361.1848449707031	975.9021606445314	-1493.703002929688	388.07763671875	1110.912841796875	-1543.337646484375	-42.90999221801758	1092.200927734375	-1489.549560546875	267.6180114746094	877.2869873046876	-1467.02001953125	96.60669708251953	891.3020019531251	-1472.18994140625	273.0849914550781	486.4389953613282	-1314.22998046875	129.0469970703125	485.3439941406251	-1565.699951171875	268.6210021972656	132.0039978027344	-1141.949951171875	171.7350006103516	106.9810028076173	-1689.369995117188	272.2369995117188	145.2870025634766	-1076.780029296875	158.9850006103516	80.04550170898447	-1624.72998046875	390.77099609375	1395.300048828125	-1475.069946289063	-4.434909820556641	1379.489990234375	-1476.489990234375	418.3590087890625	1121.449951171875	-1551.170043945313	-69.64540100097656	1111.4599609375	-1484.910034179688	462.2070007324219	803.8709716796876	-1453.400024414063	-88.80149841308594	888.0449829101564	-1218.949951171875	195.9980010986328	992.7969970703126	-1465.380004882813	
3	0.02	182.4680023193359	881.0939941406251	-1454.800048828125	176.2537689208984	864.1469116210939	-1284.088745117188	353.3994750976563	865.9837036132814	-1450.077880859375	197.0283050537109	1051.248779296875	-1437.378173828125	271.5010070800781	483.1849975585938	-1298.890014648438	274.1122131347656	636.4006958007813	-908.1819458007813	691.1619262695313	485.5339965820313	-1302.615844726563	267.9539489746094	873.8947753906251	-1452.082641601563	265.2160034179688	132.6049957275391	-1118.949951171875	347.4557495117188	307.4373779296876	-775.4478149414063	650.5997314453125	89.57916259765632	-1189.31787109375	271.5007019042969	483.1843261718751	-1298.889038085938	258.6069946289063	73.32540130615241	-1174.660034179688	262.3410949707031	264.4841003417969	-1292.660766601563	482.6890258789063	61.79882431030281	-1186.241821289063	242.6992645263672	-44.17034912109366	-1365.504150390625	270.6019897460938	148.1770019531251	-1054.410034179688	270.6019897460938	148.1770019531251	-1054.410034179688	270.6019897460938	148.1770019531251	-1054.410034179688	270.6019897460938	148.1770019531251	-1054.410034179688	129.8410034179688	484.634002685547	-1560.359985351563	178.1843566894531	385.8585815429688	-1157.240966796875	543.582275390625	528.2331542968751	-1599.294189453125	96.9825439453125	888.2936401367189	-1457.511596679688	172.0110015869141	107.8410034179688	-1688.900024414063	106.0529403686523	-26.24554443359367	-1317.49072265625	564.625	125.7855758666993	-1612.697875976563	129.8410034179688	484.6345214843751	-1560.358642578125	181.3040008544922	83.85610198974621	-1765.5	170.9294281005859	309.0512084960939	-1755.181518554688	402.5565795898438	92.04806518554697	-1721.829345703125	224.5082397460938	95.980194091797	-1986.66357421875	158.9010009765625	80.75119781494151	-1624.390014648438	158.9010009765625	80.75119781494151	-1624.390014648438	158.9010009765625	80.75119781494151	-1624.390014648438	158.9010009765625	80.75119781494151	-1624.390014648438	197.2910003662109	1403.130004882813	-1394.609985351563	203.0673370361328	1429.12548828125	-923.3839111328124	-274.5989379882813	1396.411743164063	-1388.454711914063	204.3375549316406	931.9163208007814	-1368.701538085938	418.5660095214844	1117.760009765625	-1538.160034179688	365.9911804199219	1185.114624023438	-1796.907104492188	152.3852844238281	1079.73046875	-1493.974243164063	393.3763732910156	1379.041259765625	-1465.027465820313	466.9849853515625	868.0800170898439	-1461.369995117188	437.0397033691406	784.7259521484376	-1713.50390625	205.9346313476563	830.7835693359376	-1418.035766601563	418.2801208496094	1119.231811523438	-1538.61474609375	462.5150146484375	799.4689941406251	-1443.609985351563	581.79833984375	813.9266967773439	-1357.741943359375	549.093994140625	764.2285156250001	-1557.947387695313	471.8116760253906	942.1572265625001	-1480.548950195313	-68.46289825439453	1108.150024414063	-1469.109985351563	-101.1473007202148	1123.17724609375	-1734.0791015625	-326.173095703125	1170.13232421875	-1433.805786132813	-5.05999755859375	1367.832763671875	-1462.203491210938	-81.20980072021484	936.0479736328126	-1260.010009765625	-152.7533264160156	735.2176513671876	-1429.66455078125	-343.7957153320313	999.2031250000001	-1224.037719726563	-68.399658203125	1109.000366210938	-1470.146362304688	-88.95670318603516	887.2000122070314	-1200.849975585938	-192.3921356201172	991.5450439453126	-1128.231201171875	37.09975433349609	959.2574462890626	-1124.83837890625	-72.49024963378906	991.0272216796876	-1326.583862304688	182.5240020751953	1662.72998046875	-1449.390014648438	183.5143585205078	1674.655395507813	-1397.22021484375	235.8429412841797	1666.977416992188	-1451.373168945313	177.9421997070313	1714.735961914063	-1461.191040039063	253.9518890380859	1681.11962890625	-1404.80712890625	112.5083236694336	1671.975341796875	-1396.777587890625	272.2956237792969	1656.6640625	-1501.787475585938	91.33870697021484	1641.146728515625	-1494.182006835938	190.7669067382813	1494.654418945313	-1516.783447265625	198.7951812744141	1139.4853515625	-1567.01318359375	197.3458099365234	1403.383422851563	-1390.118041992188	197.1148376464844	1237.108520507813	-1311.216918945313	71.22431945800781	1339.380737304688	-1575.196166992188	392.9260559082031	1431.787109375	-1466.263427734375	454.2870788574219	1118.512084960938	-1528.5517578125	470.1361694335938	987.2871093750001	-1461.160278320313	457.098388671875	868.9896850585939	-1437.360961914063	484.0632629394531	870.1216430664064	-1480.848510742188	474.2262573242188	800.8876953125001	-1435.177856445313	-6.850588321685791	1416.143310546875	-1466.7158203125	-101.7918853759766	1115.906616210938	-1455.036987304688	-102.0977935791016	1030.057250976563	-1333.073608398438	-60.42245101928711	952.3265380859376	-1243.635131835938	-107.6911239624023	925.4067993164064	-1272.276611328125	-98.10796356201172	896.4322509765626	-1194.433349609375	304.8066101074219	951.6216430664064	-1388.494140625	64.91909790039063	962.2301025390626	-1391.83935546875	233.010009765625	967.6439208984376	-1570.956909179688	157.5703430175781	977.6831665039064	-1570.874633789063	356.438720703125	648.0240478515626	-1372.10791015625	296.0489196777344	759.8539428710939	-1307.94287109375	290.1465759277344	664.7379760742189	-1276.671875	321.193359375	490.1071472167969	-1294.245849609375	327.3377685546875	324.5601806640626	-1220.204345703125	276.4117736816406	395.7915039062501	-1189.406494140625	278.9474792480469	299.5447082519532	-1151.890747070313	302.6776428222656	122.7395172119141	-1125.607055664063	258.342529296875	66.26122283935554	-1174.913818359375	275.1972045898438	162.3901672363282	-1031.988647460938	251.5687866210938	169.5828094482422	-977.9531860351563	336.1732482910156	131.6870117187501	-998.02001953125	22.86686515808105	708.5006103515626	-1496.909423828125	75.32358551025391	754.8013916015626	-1391.21044921875	96.12904357910156	661.4669799804689	-1417.571655273438	79.01877593994141	492.5074157714845	-1557.194580078125	94.48755645751953	277.3275451660157	-1620.72705078125	130.8816375732422	347.4550170898439	-1548.592407226563	146.0401000976563	216.723373413086	-1597.1943359375	134.2394714355469	104.3064651489259	-1695.10107421875	180.9626159667969	77.11714935302746	-1765.230712890625	155.8439636230469	72.31269073486338	-1594.13671875	183.1096496582031	49.10670852661142	-1552.91845703125	94.47072601318359	44.50624084472666	-1593.940551757813	19.87884521484375	988.0132446289064	-1498.986206054688	361.78515625	972.0817260742189	-1478.902099609375	388.3263854980469	1107.224609375	-1529.88427734375	-41.78507232666016	1088.768798828125	-1473.592407226563	267.9540100097656	873.8950195312501	-1452.079956054688	96.98220062255859	888.2940063476564	-1457.510009765625	271.5010070800781	483.1849975585938	-1298.890014648438	129.8410034179688	484.634002685547	-1560.359985351563	265.2160034179688	132.6049957275391	-1118.949951171875	172.0110015869141	107.8410034179688	-1688.900024414063	270.6019897460938	148.1770019531251	-1054.410034179688	158.9010009765625	80.75119781494151	-1624.390014648438	392.1679992675781	1391.579956054688	-1461.52001953125	-3.040930032730103	1376.099975585938	-1461.97998046875	418.5660095214844	1117.760009765625	-1538.160034179688	-68.46289825439453	1108.150024414063	-1469.109985351563	462.5150146484375	799.4689941406251	-1443.609985351563	-88.95670318603516	887.2000122070314	-1200.849975585938	196.5039978027344	989.9069824218751	-1451.430053710938	
